<svg xmlns="http://www.w3.org/2000/svg" viewBox="0 0 512 512">
  <defs>
    <linearGradient id="bg" x1="0" y1="0" x2="1" y2="1">
      <stop offset="0" stop-color="#0b3b66"/>
      <stop offset="1" stop-color="#1e6fa8"/>
    </linearGradient>
    <linearGradient id="wave" x1="0" y1="0" x2="1" y2="0">
      <stop offset="0" stop-color="#28b6a6"/>
      <stop offset="1" stop-color="#7ed6c4"/>
    </linearGradient>
  </defs>
  <rect width="512" height="512" rx="110" fill="url(#bg)"/>
  <circle cx="256" cy="188" r="92" fill="#f6c453" opacity="0.95"/>
  <path d="M64 330c36-30 72-30 108 0s72 30 108 0 72-30 108 0 72 30 108 0v96H64z" fill="url(#wave)"/>
  <path d="M124 330l84-110 48 62 42-53 86 101z" fill="#f2f8ff" opacity="0.9"/>
  <circle cx="256" cy="188" r="36" fill="#0f2a43"/>
  <path d="M256 132l12 44h-24zM312 188l-44 12v-24zM256 244l-12-44h24zM200 188l44-12v24z" fill="#fff"/>
  <text x="256" y="465" text-anchor="middle" font-family="Avenir, Arial, sans-serif" font-size="42" font-weight="700" fill="#ffffff">2026</text>
</svg>
